<svg version="1.1" xmlns="http://www.w3.org/2000/svg" xmlns:xlink="http://www.w3.org/1999/xlink" width="36.31186" height="19.53922" viewBox="0,0,36.31186,19.53922"><g transform="translate(-222.04571,-169.20406)"><g data-paper-data="{&quot;isPaintingLayer&quot;:true}" fill="none" fill-rule="nonzero" stroke="none" stroke-width="none" stroke-linecap="butt" stroke-linejoin="miter" stroke-miterlimit="10" stroke-dasharray="" stroke-dashoffset="0" font-family="none" font-weight="none" font-size="none" text-anchor="none" style="mix-blend-mode: normal"><path d="M230.27838,179.83106c0,-3.6149 4.51748,-6.54535 10.09007,-6.54535c5.5726,0 10.09008,2.93045 10.09008,6.54535c0,3.6149 -4.51748,6.54536 -10.09008,6.54536c-5.5726,0 -10.09007,-2.93045 -10.09007,-6.54536z" data-paper-data="{&quot;origPos&quot;:null}" fill="#000000" stroke="#001026" stroke-width="1.2"/><path d="M244.26707,176.53665c0,2.10066 -1.82356,3.80359 -4.07303,3.80359c-2.24947,0 -4.07303,-1.70292 -4.07303,-3.80359c0,-2.10066 1.82356,-3.80359 4.07303,-3.80359c2.24947,0 4.07303,1.70293 4.07303,3.80359z" data-paper-data="{&quot;origPos&quot;:null}" fill="#ffffff" stroke="#001026" stroke-width="1.2"/><path d="M241.44544,176.37549c0,0.53971 -0.4773,0.97724 -1.06607,0.97724c-0.58877,0 -1.06607,-0.43752 -1.06607,-0.97724c0,-0.53971 0.47729,-0.97724 1.06607,-0.97724c0.58877,0 1.06607,0.43752 1.06607,0.97724z" data-paper-data="{&quot;origPos&quot;:null}" fill="#000000" stroke="#001026" stroke-width="1.2"/><path d="M232.66529,169.6168c0.61665,-0.42691 1.04355,0.18974 1.04355,0.18974l0.43806,0.15876c1.09913,1.09913 1.60315,1.99012 2.02613,3.47054c0,0 0.20605,0.72115 -0.5151,0.92719c-0.72115,0.20604 -0.92719,-0.51511 -0.92719,-0.51511c-0.37102,-1.29857 -0.69021,-1.86767 -1.6445,-2.82196l-0.61069,-0.36561c0,0 -0.42691,-0.61665 0.18974,-1.04355z" data-paper-data="{&quot;origPos&quot;:null}" fill="#000000" stroke="none" stroke-width="0.5"/><path d="M247.28395,169.35461c0.61665,0.42691 0.18973,1.04355 0.18973,1.04355l-0.65292,0.40472c-0.82067,0.70343 -1.39786,1.58564 -1.58361,2.70011c0,0 -0.1233,0.7398 -0.8631,0.6165c-0.73979,-0.1233 -0.61649,-0.86309 -0.61649,-0.86309c0.2323,-1.39381 1.02919,-2.68569 2.08701,-3.5924l0.39582,-0.11965c0,0 0.42691,-0.61664 1.04355,-0.18974z" data-paper-data="{&quot;origPos&quot;:null}" fill="#000000" stroke="none" stroke-width="0.5"/><path d="M257.75757,184.5713c0,1.93324 -4.17921,3.50045 -9.33454,3.50045c-5.15533,0 -9.33454,-1.56721 -9.33454,-3.50045c0,-1.93324 4.17921,-3.50045 9.33454,-3.50045c5.15533,0 9.33454,1.56721 9.33454,3.50045z" data-paper-data="{&quot;origPos&quot;:null}" fill="#e5feff" stroke="#e6feff" stroke-width="1.2"/><path d="M241.31479,184.64282c0,1.93324 -4.17921,3.50045 -9.33454,3.50045c-5.15533,0 -9.33454,-1.56721 -9.33454,-3.50045c0,-1.93324 4.17921,-3.50045 9.33454,-3.50045c5.15533,0 9.33454,1.56721 9.33454,3.50045z" data-paper-data="{&quot;origPos&quot;:null}" fill="#e5feff" stroke="#e6feff" stroke-width="1.2"/></g></g></svg>